<?xml version="1.0"?>
<svg
	viewBox="0 0 100 240"
	xmlns="http://www.w3.org/2000/svg"
	xmlns:xlink="http://www.w3.org/1999/xlink">
	<defs>
		<path
			id="icon"
			fill="inherit"
			d="M 50,80 c 0.6,0 1.1,-0.2 1.6,-0.4 c 7.3,-3.2 14.7,-4.4 22,-4.4 c 7.5,0 15.1,1.5 22.8,3.6 c 0.2,0.1 0.5,0.1 0.9,0.1 c 1.5,0 2.7,-1.2 2.7,-2.6 v -61.3 c 0,-1.5 -1.2,-2.7 -2.7,-2.7 h -7.5 v -8.9 c 0,-1.3 -1,-2.4 -2.3,-2.6 c -8,-1.1 -16.4,-0.5 -23.7,2.2 c -5.4,2 -10.1,5 -13.8,9.3 c -3.4,-4.6 -8.2,-7.7 -13.5,-9.7 c -7.7,-2.9 -16.5,-3.2 -23.9,-1.8 c -1.3,0.3 -2.2,1.3 -2.2,2.6 v 8.9 h -7.7 c -1.5,0 -2.7,1.2 -2.7,2.7 v 61.3 c 0,1.4 1.2,2.6 2.7,2.6 c 0.3,0 0.6,0 0.9,-0.1 c 7.7,-2.1 15.3,-3.6 22.8,-3.6 c 7.3,0 14.7,1.2 22,4.4 c 0.5,0.2 1,0.4 1.6,0.4 z m -4.2,-7.1 c -6.5,-2.2 -12.9,-3 -19.4,-3 c -7,0.1 -14,1.2 -20.9,2.9 v -55.2 h 4.9 v 43.4 c 0,1.4 1.3,3 2.9,2.9 c 6.6,-0.6 13.2,0.1 19.2,2 c 4.8,1.5 9.3,3.8 13.3,7 z m 9.6,-0.4 c 4.5,-2.9 9,-5.3 13.5,-6.9 c 5.7,-1.9 11.5,-2.7 17.5,-1.8 c 0.2,0.1 0.5,0.1 0.7,0.1 c 1.5,0 2.7,-1.2 2.7,-2.7 v -43.6 h 4.7 v 55.2 c -6.9,-1.8 -13.9,-2.9 -20.9,-2.9 c -6,0 -12.1,0.7 -18.2,2.6 z m -8.1,-5.2 c -4,-2.9 -8.5,-5 -13.1,-6.5 c -5.9,-1.8 -12.1,-2.6 -18.3,-2.4 v -52.7 c 5.8,-0.8 12.7,-0.3 18.6,1.9 c 5.3,1.9 9.9,5.2 12.8,10.1 v 49.6 z m 5.5,0.5 v -50 c 3,-4.6 7.6,-7.8 12.9,-9.8 c 5.7,-2.1 12.3,-2.8 18.6,-2.2 v 52.4 c -5.9,-0.4 -11.6,0.5 -17.2,2.4 c -4.9,1.7 -9.7,4.2 -14.3,7.2 z"/>
	</defs>
	<use href="#icon" xlink:href="#icon" fill="#FF8080"/>
	<use href="#icon" xlink:href="#icon" fill="#FFFFFF" transform="translate(0,160)"/>
</svg>
