<?xml version="1.0"?>
<svg
	viewBox="0 0 512 512"
	xmlns="http://www.w3.org/2000/svg">
	<g fill="#A888D0" stroke="#A888D0" stroke-width="10" stroke-linecap="round" stroke-linejoin="round">
		<path
			d="m 261.4,393 h -63.4 q -25,-76 -38.3,-93.9 q -13.3,-17.8 -43,-17.8 q -12.4,0 -23.8,0.2 q 0,55.2 2,111.5 h -59.9 q 2.8,-64.9 2.8,-146.3 q 0,-78.2 -2.8,-133.4 h 37.2 q 6.4,0 26.8,-0.7 q 20.6,-0.6 38,-0.6 q 98.7,0 98.7,67.4 q 0,53.5 -56.3,74.6 q -3,1.6 0,3.2 q 21.7,6 38,34 q 16.3,27.7 44,101.8 z m -80.4,-197.7 q 0,-42.7 -55,-42.7 q -20.2,0 -35.7,3 q 2.4,33.3 2.4,86.8 q 11.8,0.4 20,0.4 q 68.3,0 68.3,-47.5 z"/>
		<path
			d="m 476.7,269 q 0,11 -1.3,28.6l -138.3,2.4 q 3,24.2 20.8,40.4 q 17.8,16 46.8,16 q 32.3,0 68.6,-9.6l -4.3,41.7 q -29.7,10.7 -73.5,10.7 q -55.4,0 -85,-31.1 q -29.5,-31.2 -29.5,-75 q 0,-45.8 28,-79.3 q 28,-33.7 78,-33.7 q 45.5,0 67.6,24.7 q 22.1,24.7 22.1,64.2 z m -50.3,-1.9 q 0,-49.4 -42,-49.4 q -40.2,0 -47.8,51.1 z"/>
	</g>
</svg>
