<?xml version="1.0"?>
<svg
	xmlns="http://www.w3.org/2000/svg"
	viewBox="0 0 700 700"
	width="700pt"
	height="700pt"
	preserveAspectRatio="xMidYMid meet">
	<g
		transform="translate(0,700) scale(0.1,-0.1)"
		fill="#000000"
		stroke="none">
		<path
			d="M 1507,5534 c -5,-5 -463,-13 -742,-14 -260,-1 -313,-3 -330,-16 -23,-17 -24,-65 -12,-359 28,-669 29,-2517 2,-3115 -19,-420 -17,-452 26,-465 11,-4 213,-7 447,-7 l427,0 21,25 c 19,22 21,35 18,113 -11,297 -14,450 -20,894 l -6,496 183,-2 c 245,-2 324,-16 450,-79 63,-32 163,-131 198,-196 121,-225 240,-518 396,-977 51,-150 90,-249 102,-257 10,-8 36,-15 58,-15 41,-1 755,-1 833,0 57,0 86,29 79,77 -5,29 -48,152 -76,218 -5,11 -37,92 -71,180 -153,395 -331,793 -444,994 -104,183 -263,363 -389,438 l -69,41 74,37 c 112,57 197,115 305,209 50,43 147,167 189,242 96,172 134,337 129,569 -3,146 -5,166 -26,250 -62,244 -218,431 -456,549 -110,54 -260,105 -363,122 -251,44 -284,46 -633,48 -164,1 -299,1 -300,0 z m 388,-698 c 147,-16 283,-67 368,-137 49,-40 103,-133 123,-210 35,-135 16,-329 -42,-434 -63,-113 -193,-205 -359,-253 -64,-19 -92,-25 -195,-39 -68,-9 -450,-15 -451,-7 -1,5 -2,106 -4,224 -4,235 -12,515 -21,711 l -6,126 49,6 c 26,4 93,10 148,13 55,4 101,7 102,8 5,4 236,-2 288,-8 z"/>
		<path
			d="M 5156,4603 c -1,-1 -31,-5 -67,-8 -244,-21 -506,-121 -699,-266 -217,-164 -431,-471 -525,-753 -101,-301 -117,-665 -45,-971 61,-261 196,-499 395,-699 250,-252 562,-386 985,-423 109,-9 341,-9 495,1 120,7 132,9 213,20 23,3 61,9 85,12 23,3 65,10 92,15 28,6 61,13 75,15 113,22 284,77 305,98 7,7 16,43 19,82 4,38 9,80 11,94 2,14 7,57 10,95 3,39 8,86 10,105 3,19 7,62 10,95 3,33 7,83 11,112 5,47 3,55 -20,78 -28,28 -31,28 -141,0 -33,-9 -71,-18 -85,-20 -53,-11 -76,-15 -100,-20 -14,-3 -47,-9 -75,-14 -27,-6 -86,-15 -130,-21 -44,-6 -90,-13 -103,-15 -42,-7 -245,-18 -332,-18 -300,-1 -510,81 -674,265 -60,67 -63,71 -112,164 -31,57 -78,193 -70,201 2,2 109,6 237,8 462,9 770,15 1144,21 209,3 398,7 419,8 50,4 76,34 77,90 0,22 3,73 5,111 8,119 9,346 1,435 -10,114 -48,280 -87,376 -174,435 -500,671 -995,720 -69,7 -333,12 -339,7 z m 221,-658 c 123,-16 224,-80 290,-182 40,-63 83,-205 86,-287 l2,-61 -60,-1 c -33,-1 -222,-5 -420,-8 -198,-4 -411,-8 -472,-9 l -113,-3 0,24 c 0,38 58,201 95,268 85,152 234,254 385,263 25,2 46,4 48,5 3,4 108,-2 159,-9 z"/>
	</g>
</svg>
