<svg viewBox="0 0 100 240" xmlns="http://www.w3.org/2000/svg" xmlns:xlink="http://www.w3.org/1999/xlink"><defs><path id="icon" fill="inherit" d="M50 80c.6 0 1.1-.2 1.6-.4 7.3-3.2 14.7-4.4 22-4.4 7.5 0 15.1 1.5 22.8 3.6.2.1.5.1.9.1 1.5 0 2.7-1.2 2.7-2.6V15c0-1.5-1.2-2.7-2.7-2.7h-7.5V3.4c0-1.3-1-2.4-2.3-2.6C79.5-.3 71.1.3 63.8 3 58.4 5 53.7 8 50 12.3c-3.4-4.6-8.2-7.7-13.5-9.7C28.8-.3 20-.6 12.6.8c-1.3.3-2.2 1.3-2.2 2.6v8.9H2.7C1.2 12.3 0 13.5 0 15v61.3c0 1.4 1.2 2.6 2.7 2.6.3 0 .6 0 .9-.1 7.7-2.1 15.3-3.6 22.8-3.6 7.3 0 14.7 1.2 22 4.4.5.2 1 .4 1.6.4zm-4.2-7.1c-6.5-2.2-12.9-3-19.4-3-7 .1-14 1.2-20.9 2.9V17.6h4.9V61c0 1.4 1.3 3 2.9 2.9 6.6-.6 13.2.1 19.2 2 4.8 1.5 9.3 3.8 13.3 7zm9.6-.4c4.5-2.9 9-5.3 13.5-6.9 5.7-1.9 11.5-2.7 17.5-1.8.2.1.5.1.7.1 1.5 0 2.7-1.2 2.7-2.7V17.6h4.7v55.2c-6.9-1.8-13.9-2.9-20.9-2.9-6 0-12.1.7-18.2 2.6zm-8.1-5.2c-4-2.9-8.5-5-13.1-6.5-5.9-1.8-12.1-2.6-18.3-2.4V5.7c5.8-.8 12.7-.3 18.6 1.9 5.3 1.9 9.9 5.2 12.8 10.1v49.6zm5.5.5v-50c3-4.6 7.6-7.8 12.9-9.8C71.4 5.9 78 5.2 84.3 5.8v52.4c-5.9-.4-11.6.5-17.2 2.4-4.9 1.7-9.7 4.2-14.3 7.2z"/></defs><use href="#icon" xlink:href="#icon" fill="#FF8080"/><use href="#icon" xlink:href="#icon" fill="#FFF" transform="translate(0 160)"/></svg>
