<svg viewBox="0 0 600 2100" xmlns="http://www.w3.org/2000/svg" xmlns:xlink="http://www.w3.org/1999/xlink"><defs><path id="ray" d="M0-194c9 0 16-7 16-16v-74c0-9-7-16-16-16s-16 7-16 16v74c0 9 7 16 16 16z"/><g id="icon" fill="inherit"><path d="M0-155c-86 0-155 69-155 155 0 43 18 82 48 112 20 20 32 47 32 76v18c0 29 19 48 48 48h54c29 0 48-19 48-48v-18c0-29 12-56 32-76 30-30 48-69 48-112 0-86-69-155-155-155Zm0 41c63 0 114 51 114 114 0 32-12 59-35 82-28 28-45 67-45 106v18c0 4-3 7-7 7h-54c-4 0-7-3-7-7v-18c0-39-17-78-45-106-23-23-35-50-35-82 0-63 51-114 114-114z"/><use href="#ray" xlink:href="#ray" transform="rotate(-135 1.036 2.5)"/><use href="#ray" xlink:href="#ray" transform="rotate(-90)"/><use href="#ray" xlink:href="#ray" transform="rotate(-45)"/><use href="#ray" xlink:href="#ray"/><use href="#ray" xlink:href="#ray" transform="rotate(45)"/><use href="#ray" xlink:href="#ray" transform="rotate(90)"/><use href="#ray" xlink:href="#ray" transform="rotate(135 -1.036 2.5)"/><path d="M64 291c0 12-8 20-20 20h-88c-12 0-20-8-20-20s8-20 20-20h88c12 0 20 8 20 20zM64 348c0-12-8-20-20-20h-88c-12 0-20 8-20 20s8 20 20 20c0 18 14 32 32 32h24c18 0 32-14 32-32 12 0 20-8 20-20z"/></g></defs><use href="#icon" xlink:href="#icon" fill="#FF8080" transform="translate(300 300)"/><use href="#icon" xlink:href="#icon" fill="#FFF" transform="translate(300 1700)"/></svg>
