<svg viewBox="0 0 32 96" xmlns="http://www.w3.org/2000/svg" xmlns:xlink="http://www.w3.org/1999/xlink"><defs><g id="icon" fill="inherit"><path d="M1.5 5v22a5 5 90 0 0 5 5H29a1.5 1.5 180 0 0 0-3H6.5a2 2 180 0 1 0-4H29a1.5 1.5 90 0 0 1.5-1.5v-22A1.5 1.5 90 0 0 29 0H6.5a5 5 90 0 0-5 5zm3 0a2 2 90 0 1 2-2h21v19h-21a5 5 23.578 0 0-2 .417V5z"/><path d="M16 16a1.5 1.5 90 0 0 1.5-1.5c0-.4.4-1.2.7-1.5s2.3-2 2.3-4a4.5 4.5 180 0 0-9 0 1.5 1.5 180 0 0 3 0 1.5 1.5 180 0 1 3 0c0 .8-.7 1.2-1.4 1.9s-1.6 2.2-1.6 3.6A1.5 1.5 90 0 0 16 16z"/><circle cx="16" cy="19" r="1.5"/></g></defs><use href="#icon" xlink:href="#icon" fill="#FF8080"/><use href="#icon" xlink:href="#icon" fill="#FFF" transform="translate(0 64)"/></svg>
