<svg viewBox="0 0 16 16" xmlns="http://www.w3.org/2000/svg"><g id="icon" fill="#000"><path id="R" d="M8.17 12.45H6.19a.15.15 0 0 1-.14-.1c-.51-1.56-.9-2.54-1.17-2.9-.25-.32-.65-.48-1.23-.48h-.59c.01 1.09.03 2.22.06 3.33.01.04-.01.08-.04.11s-.06.04-.11.04H1.11c-.05 0-.09-.01-.11-.04-.02-.03-.05-.07-.05-.11.06-1.34.09-2.88.09-4.58 0-1.62-.03-3.01-.09-4.15 0-.04.02-.08.05-.11.02-.03.06-.05.11-.05h1.15c.14 0 .41 0 .84-.02s.83-.03 1.19-.03c2.15 0 3.23.76 3.23 2.26 0 1.1-.54 1.9-1.62 2.38.38.17.73.52 1.03 1.04.35.59.81 1.67 1.38 3.21.02.05.02.1-.01.14-.03.04-.08.06-.13.06zm-5.12-5h.48c1.34 0 1.98-.43 1.98-1.33 0-.8-.51-1.19-1.57-1.19-.35 0-.67.03-.95.08.04.64.06 1.46.06 2.44z"/><path id="e" d="M12.35 12.64c-1.19 0-2.12-.35-2.76-1.02-.63-.68-.96-1.51-.96-2.46 0-.98.31-1.84.91-2.56.61-.74 1.47-1.12 2.55-1.12.99 0 1.74.28 2.23.82.48.55.73 1.26.73 2.11 0 .23-.02.53-.05.92 0 .07-.06.13-.14.14l-4.15.06c.08.4.27.73.58 1 .34.31.8.46 1.35.46.66 0 1.37-.1 2.12-.29.04-.01.1 0 .13.03s.06.08.05.13l-.14 1.31c0 .06-.04.11-.1.13-.63.22-1.42.34-2.35.34zm-.34-5.68c-.71 0-1.14.43-1.32 1.29l2.48-.04c-.04-.85-.41-1.25-1.16-1.25z"/></g></svg>
