<?xml version="1.0"?>
<svg version="1.1" viewBox="0 0 16 16" xmlns="http://www.w3.org/2000/svg">
	<g id="icon" fill="#A888D0">
		<path id="R" d="m 8.17,12.45 h -1.98 c -0.06,0 -0.12,-0.04 -0.14,-0.1 -0.51,-1.56 -0.9,-2.54 -1.17,-2.9 -0.25,-0.32 -0.65,-0.48 -1.23,-0.48 h -0.59 c 0.01,1.09 0.03,2.22 0.06,3.33 0.01,0.04 -0.01,0.08 -0.04,0.11 -0.03,0.03 -0.06,0.04 -0.11,0.04 h -1.86 c -0.05,0 -0.09,-0.01 -0.11,-0.04 -0.02,-0.03 -0.05,-0.07 -0.05,-0.11 0.06,-1.34 0.09,-2.88 0.09,-4.58 0,-1.62 -0.03,-3.01 -0.09,-4.15 0,-0.04 0.02,-0.08 0.05,-0.11 0.02,-0.03 0.06,-0.05 0.11,-0.05 h 1.15 c 0.14,0 0.41,0 0.84,-0.02 0.43,-0.02 0.83,-0.03 1.19,-0.03 2.15,0 3.23,0.76 3.23,2.26 0,1.1 -0.54,1.9 -1.62,2.38 0.38,0.17 0.73,0.52 1.03,1.04 0.35,0.59 0.81,1.67 1.38,3.21 0.02,0.05 0.02,0.1 -0.01,0.14 -0.03,0.04 -0.08,0.06 -0.13,0.06 z m -5.12,-5 c 0.19,0 0.35,0 0.48,0 1.34,0 1.98,-0.43 1.98,-1.33 0,-0.8 -0.51,-1.19 -1.57,-1.19 -0.35,0 -0.67,0.03 -0.95,0.08 0.04,0.64 0.06,1.46 0.06,2.44 z"/>
		<path id="e" d="m 12.35,12.64 c -1.19,0 -2.12,-0.35 -2.76,-1.02 -0.63,-0.68 -0.96,-1.51 -0.96,-2.46 0,-0.98 0.31,-1.84 0.91,-2.56 0.61,-0.74 1.47,-1.12 2.55,-1.12 0.99,0 1.74,0.28 2.23,0.82 0.48,0.55 0.73,1.26 0.73,2.11 0,0.23 -0.02,0.53 -0.05,0.92 0,0.07 -0.06,0.13 -0.14,0.14 l -4.15,0.06 c 0.08,0.4 0.27,0.73 0.58,1 0.34,0.31 0.8,0.46 1.35,0.46 0.66,0 1.37,-0.1 2.12,-0.29 0.04,-0.01 0.1,0 0.13,0.03 0.03,0.03 0.06,0.08 0.05,0.13 l -0.14,1.31 c 0,0.06 -0.04,0.11 -0.1,0.13 -0.63,0.22 -1.42,0.34 -2.35,0.34 z m -0.34,-5.68 c -0.71,0 -1.14,0.43 -1.32,1.29 l 2.48,-0.04 c -0.04,-0.85 -0.41,-1.25 -1.16,-1.25 z"/>
	</g>
</svg>
