<?xml version="1.0"?>
<svg version="1.1" viewBox="0 0 16 16" xmlns="http://www.w3.org/2000/svg">
	<g fill="#A888D0" stroke="#A888D0" stroke-width="0.3" stroke-linecap="round" stroke-linejoin="round">
		<path id="R" d="m 8.17,12.3 h -1.98 q -0.78,-2.38 -1.19,-2.94 q -0.42,-0.55 -1.35,-0.55 q -0.39,0 -0.74,0 q 0,1.73 0.06,3.49 h -1.87 q 0.09,-2.03 0.09,-4.58 q 0,-2.44 -0.09,-4.16 h 1.16 q 0.2,0 0.84,-0.03 q 0.64,-0.02 1.19,-0.02 q 3.08,0 3.08,2.11 q 0,1.67 -1.76,2.33 q -0.09,0.05 0,0.1 q 0.68,0.19 1.19,1.06 q 0.51,0.87 1.37,3.19 z m -2.51,-6.18 q 0,-1.34 -1.72,-1.34 q -0.63,0 -1.11,0.1 q 0.07,1.04 0.07,2.71 q 0.37,0.01 0.63,0.01 q 2.13,0 2.13,-1.48 z"/>
		<path id="e" d="m 14.9,8.42 q 0,0.34 -0.04,0.9 l -4.32,0.07 q 0.09,0.76 0.65,1.26 q 0.56,0.5 1.46,0.5 q 1.01,0 2.15,-0.3 l -0.14,1.31 q -0.93,0.33 -2.3,0.33 q -1.73,0 -2.65,-0.97 q -0.92,-0.98 -0.92,-2.35 q 0,-1.43 0.87,-2.47 q 0.88,-1.06 2.44,-1.06 q 1.42,0 2.11,0.77 q 0.69,0.78 0.69,2.01 z m -1.57,-0.06 q 0,-1.54 -1.31,-1.54 q -1.26,0 -1.5,1.59 z"/>
	</g>
</svg>
