<?xml version="1.0"?>
<svg version="1.1" viewBox="0 0 32 96" xmlns="http://www.w3.org/2000/svg" xmlns:xlink="http://www.w3.org/1999/xlink">
	<defs>
		<g id="icon" fill="inherit">
			<path d="m 1.5,5 v 22 a 5 5 90 0 0 5,5 h 22.5 a 1.5 1.5 180 0 0 0,-3 h -22.5 a 2 2 180 0 1 0,-4 h 22.5 a 1.5 1.5 90 0 0 1.5,-1.5 v -22 a 1.5 1.5 90 0 0 -1.5,-1.5 h -22.5 a 5 5 90 0 0 -5,5 z m 3,0 a 2 2 90 0 1 2,-2 h 21 v 19 h -21 a 5 5 23.5782 0 0 -2,0.4174 v -17.4174 z"/>
			<path d="m 16 16 a 1.5 1.5 90 0 0 1.5,-1.5 c 0,-0.4 0.4,-1.2 0.7,-1.5 s 2.3,-2 2.3,-4 a 4.5 4.5 180 0 0 -9,0 a 1.5 1.5 180 0 0 3,0 a 1.5 1.5 180 0 1 3,0 c 0,0.8 -0.7,1.2 -1.4,1.9 s -1.6,2.2 -1.6,3.6 a 1.5 1.5 90 0 0 1.5,1.5 z"/>
			<circle cx="16" cy="19" r="1.5"/>
		</g>
	</defs>
	<use href="#icon" xlink:href="#icon" fill="#FF8080"/>
	<use href="#icon" xlink:href="#icon" fill="#FFFFFF" transform="translate(0,64)"/>
</svg>
